<svg fill="#e1ad3d" height="200px" width="200px" version="1.1" id="Layer_1" xmlns="http://www.w3.org/2000/svg" xmlns:xlink="http://www.w3.org/1999/xlink" viewBox="0 0 512 512" xml:space="preserve" stroke="#e1ad3d"><g id="SVGRepo_bgCarrier" stroke-width="0"></g><g id="SVGRepo_tracerCarrier" stroke-linecap="round" stroke-linejoin="round"></g><g id="SVGRepo_iconCarrier"> <g> <g> <g> <path d="M384.004,362.667c-11.776,0-21.333,9.557-21.333,21.333s9.557,21.333,21.333,21.333s21.333-9.557,21.333-21.333 S395.78,362.667,384.004,362.667z"></path> <path d="M459.878,320c-6.565,0-11.883-5.318-11.883-11.883c0-28.785-23.333-52.117-52.117-52.117h-23.744 c-28.784,0-52.139,23.332-52.139,52.117c0,6.573-5.305,11.883-11.861,11.883c-28.784,0-52.139,23.332-52.139,52.117v23.765 c0,28.785,23.354,52.117,52.139,52.117c6.556,0,11.861,5.31,11.861,11.883c0,28.785,23.354,52.117,52.139,52.117h23.744 c28.785,0,52.117-23.333,52.117-52.117c0-6.565,5.318-11.883,11.883-11.883c28.785,0,52.117-23.333,52.117-52.117v-23.765 C511.996,343.333,488.663,320,459.878,320z M469.329,395.883c0,5.221-4.23,9.451-9.451,9.451 c-30.129,0-54.549,24.421-54.549,54.549c0,5.221-4.23,9.451-9.451,9.451h-23.744c-5.229,0-9.472-4.239-9.472-9.451 c0-30.129-24.399-54.549-54.528-54.549c-5.229,0-9.472-4.239-9.472-9.451v-23.765c0-5.212,4.243-9.451,9.472-9.451 c30.129,0,54.528-24.421,54.528-54.549c0-5.212,4.243-9.451,9.472-9.451h23.744c5.221,0,9.451,4.23,9.451,9.451 c0,30.129,24.421,54.549,54.549,54.549c5.221,0,9.451,4.23,9.451,9.451V395.883z"></path> <path d="M149.338,0C66.857,0,0.004,66.853,0.004,149.333c0,29.584,18.937,88.176,52.362,171.394 c4.237,10.548,8.668,21.381,13.272,32.46c14.082,33.884,29.156,68.587,44.23,102.242c5.275,11.778,10.175,22.586,14.574,32.19 c2.645,5.774,4.539,9.872,5.559,12.059c7.651,16.418,30.99,16.433,38.662,0.024c1.02-2.181,2.914-6.267,5.56-12.025 c4.4-9.576,9.3-20.355,14.576-32.104c15.075-33.57,30.152-68.203,44.235-102.041c4.696-11.283,9.211-22.312,13.524-33.048 c33.261-82.795,52.114-141.304,52.114-171.152C298.671,66.853,231.818,0,149.338,0z M206.966,304.58 c-4.245,10.567-8.694,21.434-13.324,32.559c-13.917,33.439-28.841,67.722-43.765,100.956c-0.171,0.38-0.341,0.76-0.511,1.138 c-0.185-0.414-0.372-0.829-0.558-1.245c-14.926-33.325-29.851-67.684-43.77-101.175c-4.541-10.926-8.908-21.603-13.079-31.988 c-30.927-76.999-49.288-133.807-49.288-155.491c0-58.917,47.75-106.667,106.667-106.667c58.917,0,106.667,47.75,106.667,106.667 C256.004,171.303,237.756,227.937,206.966,304.58z"></path> <path d="M149.338,85.333c-35.355,0-64,28.645-64,64s28.645,64,64,64s64-28.645,64-64S184.693,85.333,149.338,85.333z M149.338,170.667c-11.791,0-21.333-9.542-21.333-21.333S137.546,128,149.338,128s21.333,9.542,21.333,21.333 S161.129,170.667,149.338,170.667z"></path> </g> </g> </g> </g></svg>